<svg width="26" height="26" viewBox="0 0 26 26" fill="none" xmlns="http://www.w3.org/2000/svg">
<path d="M4 5H5.55848C6.2542 5 6.60206 5 6.86395 5.18876C7.12584 5.37752 7.23584 5.70753 7.45585 6.36754L8 8" stroke="#222222" stroke-linecap="round"/>
<path d="M18 18H8.55091C8.40471 18 8.33162 18 8.27616 17.9938C7.68857 17.928 7.28605 17.3695 7.40945 16.7913C7.42109 16.7367 7.44421 16.6674 7.49044 16.5287V16.5287C7.54177 16.3747 7.56743 16.2977 7.59579 16.2298C7.88607 15.5342 8.54277 15.0608 9.29448 15.0054C9.3679 15 9.44906 15 9.61137 15H15" stroke="#222222" stroke-linecap="round" stroke-linejoin="round"/>
<path d="M14.6787 15H11.6376C10.3584 15 9.71875 15 9.21781 14.6697C8.71687 14.3394 8.46492 13.7515 7.961 12.5757L7.79218 12.1818C6.98269 10.2929 6.57794 9.34853 7.02255 8.67426C7.46715 8 8.49464 8 10.5496 8H15.8305C18.1295 8 19.279 8 19.7126 8.74711C20.1462 9.49422 19.5758 10.4923 18.4352 12.4884L18.1517 12.9846C17.5897 13.9679 17.3088 14.4596 16.8432 14.7298C16.3776 15 15.8113 15 14.6787 15Z" stroke="#222222" stroke-linecap="round"/>
<circle cx="17.5" cy="20.5" r="1" fill="#222222"/>
<circle cx="9.5" cy="20.5" r="1" fill="#222222"/>
</svg>
